<?xml version="1.0" encoding="utf-8"?>
<!-- Generator: Adobe Illustrator 16.0.0, SVG Export Plug-In . SVG Version: 6.00 Build 0)  -->
<!DOCTYPE svg PUBLIC "-//W3C//DTD SVG 1.1//EN" "http://www.w3.org/Graphics/SVG/1.1/DTD/svg11.dtd">
<svg version="1.1" xmlns="http://www.w3.org/2000/svg" xmlns:xlink="http://www.w3.org/1999/xlink" x="0px" y="0px"
	 width="253.333px" height="128.001px" viewBox="0 0 253.333 128.001" enable-background="new 0 0 253.333 128.001"
	 xml:space="preserve">
<g id="Calque_2" display="none">
	<rect x="6.5" y="3.5" display="inline" width="243.5" height="117.75"/>
</g>
<g id="Calque_1">
	<text transform="matrix(1 0 0 1 12.2021 77.4204)"><tspan x="0" y="0" fill="#FFFFFF" font-family="'JandaManateeSolid'" font-size="58" letter-spacing="-6">W</tspan><tspan x="45.504" y="0" fill="#FFFFFF" font-family="'JandaManateeSolid'" font-size="58" letter-spacing="-1">  </tspan><tspan x="86.873" y="0" fill="#FFFFFF" font-family="'JandaManateeSolid'" font-size="58">be</tspan><tspan x="146.634" y="0" fill="#FFFFFF" font-family="'JandaManateeSolid'" font-size="58">e</tspan></text>
	<path fill="#FFFFFF" d="M198.419,72.227c-5.025,11.117-49.5,15.398-49.5,15.398C29.11,99.607,88.526,55.021,87.334,47.442
		c-0.489-3.11-5.054-5.897-5.054-5.897c-8.086-5.252,0.208-10.504,0.208-10.504c3.226-2.529,8.835,0.156,10.856-0.5
		c4.625-1.5,4.875-4.125,4.875-4.125c-0.75-6.25-21.875-1.584-21.875-1.584c-20.223,8.25-6.491,18.038-1.978,22.208
		c7.718,7.13-84.125,64.314,74.41,46.387C148.777,93.427,190.862,84.316,198.419,72.227L198.419,72.227z"/>
	<path fill="none" stroke="#FFFFFF" stroke-miterlimit="10" d="M203.044,45.061c-4.766,5.341-5.144,15.239,2.363,18.522
		c7.471,3.268,15.338-4.405,17.548-10.937"/>
	<path fill="#FFFFFF" d="M200.338,62.641c0,0,1.973,3.122,4.988,3.333l-5.743,3.53L200.338,62.641z"/>
	<path fill="none" stroke="#FFFFFF" stroke-miterlimit="10" d="M222.029,32.885c0,0-1.32-18.122-28.194-3.707
		c-26.872,14.413,14.153,31.709,21.571,14.014"/>
	<path fill="none" stroke="#FFFFFF" stroke-miterlimit="10" d="M225.953,35.508c0,0,17.249-5.712,14.208,24.631
		c-3.039,30.342-34.712-0.948-21.198-14.568"/>
	<path fill="#FFFFFF" d="M220.126,27.813c0,0,1.015-6.648,6.699-4.055c5.682,2.598,9.537,6.559,3.221,11.368"/>
	<g>
		<path fill="#FFFFFF" d="M219.994,34.431c0,0,3.859,0.674,4.711,3.149c0,0-2.653,0.332-5.742,7.99l-0.182-0.122l-1.311-1.663
			l-2.064-0.594C215.406,43.191,220.663,37.81,219.994,34.431z"/>
	</g>
	<g>
		<path fill="#FFFFFF" d="M199.846,50.878c0,0,7.754,12.518,17.114,10.249c0,0-1.685-5.091-1.438-8.064
			c0.007-0.076,0.032-0.15,0.051-0.221c0,0-3.429-0.671-5.449-3.645c0,0-6.892,1.271-9.549,1.392
			C199.979,50.616,199.931,51.056,199.846,50.878z"/>
	</g>
	<g>
		<path fill="#FFFFFF" d="M220.134,27.825c0,0,1.449-8.37,8.828-2.433c0,0,6.176,1.619,3.838,7.123l-2.755,2.609l-4.748,0.295
			l-3.247-2.169L220.134,27.825z"/>
	</g>
	<text transform="matrix(1 0 0 1 71.5674 111.6313)" fill="#FFFFFF" font-family="'CaviarDreams-Bold'" font-size="18">agency</text>
	<line fill="#FFFFFF" x1="142.188" y1="107.195" x2="189.346" y2="107.195"/>
	<line fill="#FFFFFF" x1="18.597" y1="107.195" x2="65.755" y2="107.195"/>
</g>
</svg>
