<?xml version="1.0" encoding="utf-8"?>
<!-- Generator: Adobe Illustrator 24.1.1, SVG Export Plug-In . SVG Version: 6.00 Build 0)  -->
<svg version="1.1" id="Calque_1" xmlns="http://www.w3.org/2000/svg" xmlns:xlink="http://www.w3.org/1999/xlink" x="0px" y="0px"
	 viewBox="0 0 321 229" style="enable-background:new 0 0 321 229;" xml:space="preserve">
<style type="text/css">
	.st0{fill:#7FB5EA;}
	.st1{fill:none;}
	.st2{fill:#6579DB;stroke:#6579DB;stroke-miterlimit:10;}
	.st3{fill:#DDDDDD;}
</style>
<g>
	<path class="st0" d="M164,101.8L164,101.8c-0.9,2.4-2.5,4.8-5,7.3c-4.7,4.7-10,8-16.7,9.6c0,0,0,0,0,0c6.7-1.6,12-4.8,16.7-9.6
		C161.4,106.6,163.1,104.2,164,101.8L164,101.8C164,101.8,164,101.8,164,101.8C164,101.8,164,101.8,164,101.8z"/>
	<path class="st1" d="M142.3,118.7C142.3,118.7,142.3,118.7,142.3,118.7c-2.8,0.7-5.7,1-8.9,1.2c3.3-11.2,5.6-21.7,9.5-31.6
		c2.7-6.9,7.8-8.8,12.6-6"/>
	<path class="st1" d="M164,101.8c1.2-3.1,1.1-6.2-0.3-9.6c-0.6-1.5-1.5-3.1-2.6-4.8"/>
	<path class="st2" d="M249,136.2c-16.2,7.1-33.4,10-50.9,10.9c-15.6,0.9-31.3,2.1-46.8-0.8c-2.8-0.5-5.6-1.3-8.3-2.4
		c-8.1-3.2-10.2-9.1-6.3-16.8c0.5-1,1.1-2,1.7-3h0c0.9-0.3,1.9-0.6,2.8-0.9c0,0,0,0,0,0c4.5-1.3,9.1-2.5,13.4-4.2
		c-0.6,1.2-1.1,2.3-1.6,3.6c-2.3,6.3-0.8,10.6,5,13.8c5.3,3,11.2,3.9,17.1,4.3c23.8,1.6,47.3-0.3,70.6-5.4c0.4-0.1,0.9-0.1,1.4-0.2
		C248,135,249.1,134.5,249,136.2z"/>
	<line class="st1" x1="174" y1="90" x2="167.6" y2="91.4"/>
	<line class="st1" x1="163.7" y1="92.2" x2="160" y2="93"/>
	<path class="st3" d="M169.6,105.5c-2.3,7.3-9.5,11.1-11.4,12.1c-1.2,0.6-2.4,1.1-3.7,1.6h0c-4.5,1.4-8.9,2.8-13.4,4.2c0,0,0,0,0,0
		c-0.9,0.3-1.9,0.6-2.8,0.9h0c-0.5,0.2-1,0.4-1.6,0.5c-1.1,0.7-2.6,1.7-3.9,3.5c-2.5,3.3-2.7,7.1-2.9,11.8c-0.3,7.1,1,10.3-1.5,13.8
		c-0.6,0.8-1.4,1.9-2,1.8c-1.8-0.5-0.4-9.7-0.2-28.3c0-1.1,0-1.9,0-2.5c-0.8-0.4-1.3-0.7-2-0.9c-12.1-4.5-16.4-11.4-13-24
		c2.1-7.7,6.3-14.8,9.8-22c0.5-1,2.3-1.3,3.4-2c-0.2,2.9-1.4,4.8-2.2,6.8c-2.3,6-5.1,11.8-6.5,18c-2.1,9.3,2.4,16,11.7,18.7
		c1.3-6.3,2.4-12.6,4-18.7c1.7-6.3,3.2-12.9,6.2-18.6c4-7.6,11.7-8.9,18.5-3.7c1.2,0.9,2.4,1.9,3.5,3c-1.4,0.2-2.8,0.5-4.1,0.9
		c-4.8-2.8-9.9-0.9-12.6,6c-3.9,9.9-6.2,20.5-9.5,31.7c3.2-0.1,6.1-0.5,8.8-1.1c0,0,0,0,0.1,0c0,0,0,0,0,0
		c6.7-1.6,12.1-4.8,16.7-9.6c2.4-2.5,4.1-4.9,5-7.3v0c0,0,0,0,0-0.1c1.2-3.1,1.1-6.2-0.3-9.6c-0.6-1.5-1.5-3.1-2.6-4.8v0l4-0.3
		c0,0,0,0,0.1,0c0.6,0.8,1.7,2.3,2.7,4.1C169.7,94.9,171.4,100,169.6,105.5z"/>
	<path class="st0" d="M174,83.6c0.1,2.5-2.2,3.6-4.3,3.8c-1.5,0.2-3-0.1-4.6-0.2c0,0,0,0-0.1,0l-4,0.3v0c-1.9,0.7-3.2,2.2-4,4.1
		c-1.1,2.8,0.8,4.5,2.8,6.1c2.2,1.8,3.6,3,4.1,4.1c0,0,0,0,0,0v0c-0.9,2.4-2.6,4.8-5,7.3c-4.6,4.7-10,8-16.7,9.6
		c2.3-3,4.7-5.8,7-8.7c4.4-5.6,4.4-5.6-0.3-10.6c-6.7-7-5.6-12.2,3.8-16.2c1-0.4,1.9-0.8,2.9-1c0,0,0,0,0,0c1.4-0.4,2.7-0.7,4.1-0.9
		c3.3-0.5,6.6-0.5,10-0.3C171.5,81.1,173.9,81.4,174,83.6z"/>
</g>
</svg>
